<svg width="20" height="20" viewBox="0 0 20 20" fill="none" xmlns="http://www.w3.org/2000/svg">
<path d="M10.1471 1.0791C10.5199 1.55891 11.079 2.18759 11.8258 2.7832C13.2283 3.90171 15.3036 4.9077 18.028 4.57812C18.0321 4.91196 18.0292 5.38559 17.9977 5.96191C17.9325 7.15403 17.7506 8.77819 17.2838 10.5088C16.3611 13.9291 14.3498 17.6936 10.0084 19.46C5.65745 17.6931 3.64289 13.9276 2.71838 10.5078C2.25058 8.77735 2.0679 7.15394 2.00256 5.96191C1.97098 5.38558 1.96717 4.91196 1.97131 4.57812C4.70196 4.90837 6.78227 3.90191 8.18811 2.7832C8.93653 2.18761 9.49716 1.55889 9.87073 1.0791C9.92076 1.01484 9.96495 0.951257 10.0084 0.892578C10.0519 0.951369 10.0971 1.01471 10.1471 1.0791Z" fill="white" stroke="black"/>
<path d="M7.57386 13V7.18182H8.62784V9.64489H11.3239V7.18182H12.3807V13H11.3239V10.5284H8.62784V13H7.57386Z" fill="black"/>
</svg>
